<?xml version="1.0" encoding="UTF-8" standalone="no"?>
<svg
   color-interpolation-filters="sRGB"
   version="1.0"
   viewBox="0 0 250 80"
   id="svg6"
   sodipodi:docname="logo_black.svg"
   width="250"
   height="80"
   inkscape:version="1.3.2 (091e20ef0f, 2023-11-25, custom)"
   xmlns:inkscape="http://www.inkscape.org/namespaces/inkscape"
   xmlns:sodipodi="http://sodipodi.sourceforge.net/DTD/sodipodi-0.dtd"
   xmlns="http://www.w3.org/2000/svg"
   xmlns:svg="http://www.w3.org/2000/svg">
  <defs
     id="defs6" />
  <sodipodi:namedview
     id="namedview6"
     pagecolor="#ffffff"
     bordercolor="#666666"
     borderopacity="1.0"
     inkscape:showpageshadow="2"
     inkscape:pageopacity="0.0"
     inkscape:pagecheckerboard="0"
     inkscape:deskcolor="#d1d1d1"
     inkscape:zoom="3.2367189"
     inkscape:cx="126.05358"
     inkscape:cy="68.896931"
     inkscape:window-width="1920"
     inkscape:window-height="1080"
     inkscape:window-x="2560"
     inkscape:window-y="0"
     inkscape:window-maximized="1"
     inkscape:current-layer="g6" />
  <g
     fill="#101111"
     class="icon-text-wrapper icon-svg-group iconsvg"
     id="g6">
    <g
       class="iconsvg-imagesvg"
       transform="translate(3.6494722,5.1244179)"
       id="g5"
       style="fill:#000000;fill-opacity:1">
      <svg
         width="60"
         height="68.099022"
         class="image-svg-svg primary"
         style="display:inline;overflow:visible;fill:#000000;fill-opacity:1"
         version="1.1"
         id="svg5"
         inkscape:label="svg5">
        <svg
           viewBox="0.81 0.42 98.38 111.66"
           version="1.1"
           id="svg4"
           width="100%"
           height="100%"
           style="fill:#000000;fill-opacity:1">
          <circle
             cx="42.880001"
             cy="22.139999"
             r="21.719999"
             id="circle1"
             style="fill:#000000;fill-opacity:1" />
          <circle
             cx="12.71"
             cy="49.82"
             r="11.9"
             id="circle2"
             style="fill:#000000;fill-opacity:1" />
          <circle
             cx="75.669998"
             cy="60.060001"
             r="23.52"
             id="circle3"
             style="fill:#000000;fill-opacity:1" />
          <circle
             cx="30.559999"
             cy="88.139999"
             r="23.940001"
             id="circle4"
             style="fill:#000000;fill-opacity:1" />
        </svg>
      </svg>
    </g>
    <path
       d="m 78.909473,46.548918 -4.99,-5.49 v 6.52 q -0.22,0.08 -0.64,0.14 -0.41,0.07 -0.89,0.07 -0.96,0 -1.35,-0.34 -0.39,-0.34 -0.39,-1.2 v -13.93 q 0.2,-0.05 0.64,-0.12 0.44,-0.08 0.87,-0.08 0.91,0 1.33,0.33 0.43,0.33 0.43,1.21 v 5.19 l 6.05,-6.65 q 1.210004,0 1.750004,0.48 0.54,0.48 0.54,1.13 0,0.53 -0.27,0.94 -0.26,0.42 -0.79,0.95 l -4.260004,4.23 q 1.97,2.01 3.45,3.6 1.490004,1.59 2.520004,2.54 -0.02,0.83 -0.54,1.3 -0.52,0.47 -1.25,0.47 -0.730004,0 -1.230004,-0.39 -0.5,-0.39 -0.98,-0.9 z m 6.270004,-0.25 v -10.53 q 0.2,-0.05 0.59,-0.12 0.39,-0.08 0.84,-0.08 0.91,0 1.33,0.33 0.41,0.33 0.41,1.16 v 10.52 q -0.2,0.06 -0.59,0.13 -0.39,0.08 -0.84,0.08 -0.91,0 -1.33,-0.33 -0.41,-0.33 -0.41,-1.16 z m -0.25,-14.18 q 0,-0.73 0.51,-1.24 0.52,-0.52 1.33,-0.52 0.8,0 1.3,0.52 0.51,0.51 0.51,1.24 0,0.76 -0.51,1.27 -0.5,0.52 -1.3,0.52 -0.81,0 -1.33,-0.52 -0.51,-0.51 -0.51,-1.27 z m 10.1,15.46 q -0.21,0.06 -0.6,0.13 -0.39,0.08 -0.84,0.08 -0.91,0 -1.32,-0.33 -0.42,-0.33 -0.42,-1.16 v -15.06 q 0.2,-0.07 0.59,-0.14 0.39,-0.06 0.85,-0.06 0.9,0 1.32,0.33 0.42,0.33 0.42,1.16 z m 6.540003,-3.67 q 0,0.8 0.49,1.16 0.49,0.35 1.38,0.35 0.42,0 0.86,-0.1 0.45,-0.1 0.8,-0.25 0.2,0.2 0.34,0.49 0.14,0.29 0.14,0.66 0,0.76 -0.68,1.25 -0.68,0.49 -2.19,0.49 -1.99,0 -3.140011,-0.89 -1.149992,-0.9 -1.149992,-2.96 v -11.56 q 0.210002,-0.05 0.600002,-0.12 0.38999,-0.08 0.839989,-0.08 0.880012,0 1.300012,0.33 0.41,0.32 0.41,1.16 v 2.09 h 3.7 q 0.13,0.2 0.23,0.52 0.1,0.33 0.1,0.71 0,0.65 -0.3,0.96 -0.3,0.3 -0.81,0.3 h -2.92 z m 15.87,-1.84 -7,1.01 q 0.35,1.28 1.31,1.86 0.95,0.58 2.36,0.58 1.06,0 1.95,-0.31 0.9,-0.32 1.45,-0.67 0.36,0.2 0.58,0.55 0.23,0.35 0.23,0.76 0,0.5 -0.34,0.89 -0.34,0.39 -0.93,0.67 -0.6,0.28 -1.4,0.43 -0.81,0.15 -1.74,0.15 -1.48,0 -2.71,-0.41 -1.22,-0.4 -2.09,-1.22 -0.86,-0.81 -1.36,-2.02 -0.49,-1.21 -0.49,-2.82 0,-1.57 0.48,-2.72 0.48,-1.16 1.3,-1.94 0.82,-0.78 1.9,-1.16 1.08,-0.38 2.29,-0.38 1.24,0 2.27,0.39 1.03,0.39 1.76,1.08 0.73,0.7 1.15,1.67 0.41,0.97 0.41,2.1 0,0.7 -0.36,1.06 -0.37,0.35 -1.02,0.45 z m -4.21,-4.36 q -1.23,0 -2.06,0.82 -0.83,0.82 -0.94,2.33 l 5.6,-0.83 q -0.11,-0.93 -0.73,-1.62 -0.63,-0.7 -1.87,-0.7 z m 11.26,0.86 v 9.01 q -0.23,0.06 -0.61,0.13 -0.37,0.08 -0.85,0.08 -0.88,0 -1.31,-0.33 -0.43,-0.33 -0.43,-1.16 v -7.98 q 0,-0.66 0.3,-1.11 0.3,-0.45 0.88,-0.81 0.78,-0.47 1.93,-0.78 1.15,-0.3 2.48,-0.3 2.39,0 2.39,1.49 0,0.35 -0.11,0.66 -0.11,0.32 -0.24,0.52 -0.58,-0.13 -1.44,-0.13 -0.88,0 -1.66,0.21 -0.78,0.2 -1.33,0.5 z m 17.47,-6.04 v 12.76 q 0,0.58 -0.25,0.93 -0.25,0.36 -0.75,0.68 -0.63,0.41 -1.67,0.75 -1.03,0.34 -2.39,0.34 -3.02,0 -4.79,-1.55 -1.78,-1.55 -1.78,-4.75 0,-1.66 0.48,-2.86 0.48,-1.19 1.3,-1.97 0.81,-0.78 1.92,-1.16 1.11,-0.38 2.39,-0.38 0.68,0 1.29,0.14 0.6,0.14 1.08,0.34 v -4.56 q 0.2,-0.07 0.59,-0.14 0.39,-0.06 0.85,-0.06 0.9,0 1.32,0.33 0.41,0.33 0.41,1.16 z m -3.17,12.41 v -6.57 q -0.38,-0.23 -0.88,-0.38 -0.5,-0.15 -1.08,-0.15 -1.41,0 -2.34,0.91 -0.94,0.9 -0.94,2.97 0,1.94 0.9,2.83 0.89,0.89 2.43,0.89 0.65,0 1.12,-0.15 0.46,-0.15 0.79,-0.35 z m 11.11,0.63 q 0.73,0 1.33,-0.14 0.61,-0.14 0.88,-0.34 v -2.79 l -2.44,0.22 q -1.01,0.1 -1.54,0.44 -0.53,0.34 -0.53,1.07 0,0.73 0.55,1.14 0.54,0.4 1.75,0.4 z m -0.1,-10.25 q 2.46,0 3.94,1.06 1.47,1.06 1.47,3.27 v 5.82 q 0,0.6 -0.3,0.96 -0.3,0.35 -0.76,0.63 -0.7,0.42 -1.79,0.68 -1.08,0.25 -2.46,0.25 -2.52,0 -3.97,-0.97 -1.45,-0.97 -1.45,-2.91 0,-1.69 1.07,-2.58 1.07,-0.9 3.11,-1.1 l 3.45,-0.35 v -0.45 q 0,-0.96 -0.69,-1.41 -0.69,-0.46 -1.95,-0.46 -0.98,0 -1.92,0.24 -0.93,0.24 -1.66,0.59 -0.27,-0.2 -0.46,-0.54 -0.19,-0.34 -0.19,-0.74 0,-0.5 0.24,-0.82 0.24,-0.31 0.76,-0.56 0.74,-0.31 1.67,-0.46 0.93,-0.15 1.89,-0.15 z m 17.82,8.92 q 0,1.76 -1.31,2.75 -1.3,1 -3.82,1 -1.04,0 -1.88,-0.15 -0.84,-0.15 -1.46,-0.44 -0.62,-0.29 -0.96,-0.71 -0.34,-0.41 -0.34,-0.92 0,-0.48 0.22,-0.83 0.21,-0.35 0.56,-0.58 0.71,0.45 1.63,0.81 0.92,0.35 2.13,0.35 1.03,0 1.56,-0.34 0.53,-0.34 0.53,-0.94 0,-1.04 -1.51,-1.36 l -1.41,-0.33 q -1.87,-0.43 -2.76,-1.29 -0.9,-0.85 -0.9,-2.29 0,-1.63 1.31,-2.65 1.31,-1.02 3.68,-1.02 0.91,0 1.67,0.13 0.77,0.14 1.34,0.41 0.57,0.26 0.88,0.63 0.32,0.36 0.32,0.84 0,0.45 -0.21,0.79 -0.2,0.34 -0.47,0.55 -0.23,-0.16 -0.6,-0.31 -0.36,-0.15 -0.8,-0.27 -0.44,-0.13 -0.93,-0.22 -0.49,-0.09 -0.97,-0.09 -0.99,0 -1.54,0.32 -0.55,0.31 -0.55,0.89 0,0.43 0.31,0.71 0.32,0.27 1.1,0.45 l 1.23,0.3 q 2.09,0.48 3.02,1.4 0.93,0.92 0.93,2.41 z m 5.8,3.34 q -0.23,0.06 -0.61,0.13 -0.38,0.08 -0.85,0.08 -0.89,0 -1.31,-0.33 -0.43,-0.33 -0.43,-1.16 v -15.06 q 0.2,-0.07 0.59,-0.14 0.39,-0.06 0.87,-0.06 0.88,0 1.31,0.33 0.43,0.33 0.43,1.16 v 3.47 q 0.55,-0.28 1.27,-0.48 0.72,-0.2 1.6,-0.2 2.29,0 3.65,1.18 1.36,1.19 1.36,3.58 v 7.5 q -0.2,0.06 -0.59,0.13 -0.39,0.08 -0.85,0.08 -0.9,0 -1.33,-0.33 -0.43,-0.33 -0.43,-1.16 v -6.07 q 0,-1.26 -0.65,-1.82 -0.66,-0.57 -1.72,-0.57 -0.68,0 -1.26,0.21 -0.58,0.22 -1.05,0.52 z m 17.09,-12.26 q 1.21,0 2.26,0.39 1.04,0.39 1.82,1.19 0.78,0.79 1.23,1.96 0.44,1.17 0.44,2.76 0,1.58 -0.46,2.77 -0.45,1.18 -1.28,1.99 -0.83,0.8 -2,1.2 -1.17,0.41 -2.61,0.41 -1.46,0 -2.54,-0.35 -1.09,-0.36 -1.79,-0.84 -0.53,-0.35 -0.78,-0.76 -0.25,-0.42 -0.25,-1 v -13.8 q 0.2,-0.07 0.59,-0.14 0.39,-0.06 0.87,-0.06 0.88,0 1.31,0.33 0.42,0.33 0.42,1.16 v 3.45 q 0.53,-0.28 1.23,-0.47 0.69,-0.19 1.54,-0.19 z m -0.55,2.52 q -0.68,0 -1.25,0.23 -0.56,0.22 -0.99,0.5 v 6.3 q 0.33,0.2 0.88,0.39 0.55,0.18 1.29,0.18 1.41,0 2.26,-0.94 0.86,-0.94 0.86,-2.88 0,-1.97 -0.85,-2.87 -0.84,-0.91 -2.2,-0.91 z m 20.65,3.8 q 0,1.46 -0.44,2.63 -0.44,1.17 -1.25,2.01 -0.8,0.83 -1.94,1.27 -1.13,0.44 -2.54,0.44 -1.41,0 -2.54,-0.44 -1.14,-0.44 -1.94,-1.26 -0.81,-0.82 -1.25,-1.99 -0.44,-1.17 -0.44,-2.66 0,-1.46 0.44,-2.63 0.44,-1.17 1.26,-1.99 0.82,-0.82 1.95,-1.26 1.14,-0.44 2.52,-0.44 1.39,0 2.52,0.44 1.13,0.44 1.95,1.27 0.82,0.83 1.26,2.01 0.44,1.17 0.44,2.6 z m -6.17,-3.8 q -1.36,0 -2.14,0.99 -0.78,1 -0.78,2.81 0,1.84 0.77,2.82 0.77,0.98 2.15,0.98 1.39,0 2.15,-0.99 0.77,-1 0.77,-2.81 0,-1.81 -0.78,-2.81 -0.78,-0.99 -2.14,-0.99 z m 13.52,7.73 q 0.73,0 1.34,-0.14 0.6,-0.14 0.88,-0.34 v -2.79 l -2.44,0.22 q -1.01,0.1 -1.54,0.44 -0.53,0.34 -0.53,1.07 0,0.73 0.54,1.14 0.54,0.4 1.75,0.4 z m -0.1,-10.25 q 2.47,0 3.94,1.06 1.48,1.06 1.48,3.27 v 5.82 q 0,0.6 -0.31,0.96 -0.3,0.35 -0.75,0.63 -0.71,0.42 -1.79,0.68 -1.08,0.25 -2.47,0.25 -2.52,0 -3.96,-0.97 -1.45,-0.97 -1.45,-2.91 0,-1.69 1.07,-2.58 1.07,-0.9 3.11,-1.1 l 3.45,-0.35 v -0.45 q 0,-0.96 -0.69,-1.41 -0.7,-0.46 -1.96,-0.46 -0.98,0 -1.91,0.24 -0.93,0.24 -1.66,0.59 -0.28,-0.2 -0.47,-0.54 -0.19,-0.34 -0.19,-0.74 0,-0.5 0.24,-0.82 0.24,-0.31 0.77,-0.56 0.73,-0.31 1.66,-0.46 0.94,-0.15 1.89,-0.15 z m 11.74,3.25 v 9.01 q -0.23,0.06 -0.61,0.13 -0.38,0.08 -0.85,0.08 -0.88,0 -1.31,-0.33 -0.43,-0.33 -0.43,-1.16 v -7.98 q 0,-0.66 0.3,-1.11 0.3,-0.45 0.88,-0.81 0.78,-0.47 1.93,-0.78 1.14,-0.3 2.48,-0.3 2.39,0 2.39,1.49 0,0.35 -0.11,0.66 -0.12,0.32 -0.24,0.52 -0.58,-0.13 -1.44,-0.13 -0.88,0 -1.66,0.21 -0.78,0.2 -1.33,0.5 z m 17.47,-6.04 v 12.76 q 0,0.58 -0.25,0.93 -0.25,0.36 -0.75,0.68 -0.63,0.41 -1.67,0.75 -1.03,0.34 -2.39,0.34 -3.02,0 -4.8,-1.55 -1.77,-1.55 -1.77,-4.75 0,-1.66 0.48,-2.86 0.48,-1.19 1.29,-1.97 0.82,-0.78 1.93,-1.16 1.11,-0.38 2.39,-0.38 0.68,0 1.29,0.14 0.6,0.14 1.08,0.34 v -4.56 q 0.2,-0.07 0.59,-0.14 0.39,-0.06 0.85,-0.06 0.9,0 1.32,0.33 0.41,0.33 0.41,1.16 z m -3.17,12.41 v -6.57 q -0.38,-0.23 -0.88,-0.38 -0.5,-0.15 -1.08,-0.15 -1.41,0 -2.35,0.91 -0.93,0.9 -0.93,2.97 0,1.94 0.9,2.83 0.89,0.89 2.43,0.89 0.65,0 1.12,-0.15 0.46,-0.15 0.79,-0.35 z"
       class="tp-name iconsvg-namesvg"
       data-gra="path-name"
       id="path5"
       style="display:inline;fill:#000000;fill-opacity:1" />
  </g>
</svg>
